<svg width="13" height="26" viewBox="0 0 13 26" fill="none" xmlns="http://www.w3.org/2000/svg">
	<path d="M6.54695 0.430723C3.09422 0.403184 0.273136 3.11676 0.246917 6.49068L0.0497157 20.4114C0.0285971 23.0308 2.19307 25.1795 4.87374 25.2001C7.5544 25.2208 9.75275 23.1062 9.77338 20.4872L9.97009 6.56601C9.98521 4.6914 8.44298 3.16046 6.52457 3.14569C4.60665 3.1314 3.03944 4.63889 3.02483 6.51207L2.93995 17.0398C2.93741 17.4156 3.24488 17.7208 3.62945 17.7243C4.01352 17.7272 4.32637 17.4263 4.32939 17.051L4.41428 6.52228C4.42382 5.39973 5.36533 4.49409 6.51412 4.50245C7.6634 4.5113 8.59068 5.43181 8.58163 6.55484L8.38443 20.4755C8.36932 22.3501 6.80309 23.8567 4.88469 23.8419C2.96676 23.8276 1.42405 22.2962 1.43965 20.4221L1.63429 6.63719C1.65544 4.01293 3.85033 1.90168 6.53393 1.92426C9.22098 1.94447 11.3796 4.08731 11.3585 6.71157L11.2752 17.1035C11.2716 17.4803 11.5791 17.7855 11.9642 17.7875C12.3487 17.7909 12.6616 17.49 12.6641 17.1142L12.7485 6.58692C12.7767 3.21302 9.9997 0.456343 6.54695 0.430723Z" fill="#525252"/>
</svg>
