<svg width="37" height="36" viewBox="0 0 37 36" fill="none" xmlns="http://www.w3.org/2000/svg">
	<path d="M22.1714 2.49598C21.0907 2.16238 19.9413 1.97998 18.7476 1.97998C15.2649 1.97998 12.1482 3.51838 10.0703 5.93518L15.4246 10.3368L22.1714 2.49598Z" fill="#1A73E8"/>
	<path d="M10.0671 5.93506C8.41173 7.85986 7.41211 10.3439 7.41211 13.0535C7.41211 15.1367 7.83701 16.8239 8.53454 18.3359L15.4214 10.3367L10.0671 5.93506Z" fill="#EA4335"/>
	<path d="M18.7474 8.82009C21.1421 8.82009 23.0824 10.7161 23.0824 13.0561C23.0824 14.0977 22.6968 15.0529 22.0582 15.7897C22.0582 15.7897 25.482 11.8105 28.805 7.95129C27.4321 5.37129 25.0521 3.38649 22.1736 2.49609L15.4219 10.3369C16.2176 9.40809 17.4113 8.82009 18.7474 8.82009Z" fill="#4285F4"/>
	<path d="M18.7475 17.2897C16.3528 17.2897 14.4125 15.3937 14.4125 13.0537C14.4125 12.0193 14.7932 11.0713 15.422 10.3345L8.53516 18.3361C9.71162 20.8873 11.6691 22.9345 13.6855 25.5145L22.0558 15.7897C21.2625 16.7065 20.0738 17.2897 18.7475 17.2897Z" fill="#FBBC04"/>
	<path d="M21.8908 28.1688C25.6707 22.392 30.0793 19.7688 30.0793 13.0536C30.0793 11.2128 29.6176 9.47757 28.8046 7.95117L13.6875 25.5144C14.3285 26.3352 14.9745 27.2088 15.6057 28.1712C17.9046 31.6416 17.266 33.7224 18.7495 33.7224C20.228 33.7224 19.5919 31.6392 21.8908 28.1688Z" fill="#34A853"/>
</svg>
