<svg width="78" height="62" viewBox="0 0 78 62" fill="none" xmlns="http://www.w3.org/2000/svg">
	<path d="M1.59961 53.4048H66.5875V58.2911" stroke="black" stroke-width="2.5" stroke-miterlimit="2.6131" stroke-linecap="round" stroke-linejoin="round"/>
	<path d="M66.5877 58.291C66.5877 59.4475 65.6207 60.3895 64.4434 60.3895" stroke="black" stroke-width="2.5" stroke-miterlimit="2.6131" stroke-linecap="round" stroke-linejoin="round"/>
	<path d="M64.4439 60.3896H3.31641" stroke="black" stroke-width="2.5" stroke-miterlimit="2.6131" stroke-linecap="round" stroke-linejoin="round"/>
	<path d="M3.31568 60.3894C2.3719 60.3894 1.59961 59.6332 1.59961 58.7109" stroke="black" stroke-width="2.5" stroke-miterlimit="2.6131" stroke-linecap="round" stroke-linejoin="round"/>
	<path d="M1.59961 58.7111V53.4048" stroke="black" stroke-width="2.5" stroke-miterlimit="2.6131" stroke-linecap="round" stroke-linejoin="round"/>
	<path d="M21.7901 20.126H7.34766" stroke="black" stroke-width="2.5" stroke-miterlimit="2.6131" stroke-linecap="round" stroke-linejoin="round"/>
	<path d="M7.34933 20.126C6.292 20.126 5.42773 20.9705 5.42773 22.0008" stroke="black" stroke-width="2.5" stroke-miterlimit="2.6131" stroke-linecap="round" stroke-linejoin="round"/>
	<path d="M5.42773 22.0005V53.4049H62.7598V41.8487" stroke="black" stroke-width="2.5" stroke-miterlimit="2.6131" stroke-linecap="round" stroke-linejoin="round"/>
	<path d="M44.2822 20.126H31.2617" stroke="black" stroke-width="2.5" stroke-miterlimit="2.6131" stroke-linecap="round" stroke-linejoin="round"/>
	<path d="M61.2091 20.126H49.6367" stroke="black" stroke-width="2.5" stroke-miterlimit="2.6131" stroke-linecap="round" stroke-linejoin="round"/>
	<path d="M62.7598 35.9306V25.5752" stroke="black" stroke-width="2.5" stroke-miterlimit="2.6131" stroke-linecap="round" stroke-linejoin="round"/>
	<path d="M4.75391 56.8975H25.8149" stroke="black" stroke-width="2.5" stroke-miterlimit="2.6131" stroke-linecap="round" stroke-linejoin="round"/>
	<path d="M56.0773 57.34C56.3281 57.34 56.5305 57.1392 56.5305 56.8973C56.5305 56.6507 56.328 56.4546 56.0773 56.4546C55.8266 56.4546 55.6211 56.6509 55.6211 56.8973C55.6211 57.1392 55.8266 57.34 56.0773 57.34Z" stroke="black" stroke-width="2.5" stroke-miterlimit="2.6131" stroke-linecap="round" stroke-linejoin="round"/>
	<path d="M59.481 57.34C59.7334 57.34 59.9374 57.1392 59.9374 56.8973C59.9374 56.6507 59.7334 56.4546 59.481 56.4546C59.2318 56.4546 59.0293 56.6509 59.0293 56.8973C59.0293 57.1392 59.2318 57.34 59.481 57.34Z" stroke="black" stroke-width="2.5" stroke-miterlimit="2.6131" stroke-linecap="round" stroke-linejoin="round"/>
	<path d="M62.6036 57.34C62.8543 57.34 63.0598 57.1392 63.0598 56.8973C63.0598 56.6507 62.8543 56.4546 62.6036 56.4546C62.3559 56.4546 62.1504 56.6509 62.1504 56.8973C62.1502 57.1392 62.3559 57.34 62.6036 57.34Z" stroke="black" stroke-width="2.5" stroke-miterlimit="2.6131" stroke-linecap="round" stroke-linejoin="round"/>
	<path d="M51.9824 36.3563C51.9824 40.4424 48.5921 43.7566 44.4123 43.7566C40.2324 43.7566 36.8438 40.4422 36.8438 36.3563C36.8438 32.2735 40.2324 28.959 44.4123 28.959C48.5921 28.959 51.9824 32.2735 51.9824 36.3563Z" stroke="black" stroke-width="2.5" stroke-miterlimit="2.6131" stroke-linecap="round" stroke-linejoin="round"/>
	<path d="M49.6767 7.14196C49.6767 9.98312 47.319 12.2825 44.4129 12.2825C41.5054 12.2825 39.1523 9.98312 39.1523 7.14196C39.1523 4.3008 41.5054 2 44.4129 2C47.3188 2 49.6767 4.3008 49.6767 7.14196Z" stroke="black" stroke-width="2.5" stroke-miterlimit="2.6	131" stroke-linecap="round" stroke-linejoin="round"/>
	<path d="M76.3051 36.3563C76.3051 39.1975 73.9489 41.4999 71.0414 41.4999C68.1339 41.4999 65.7793 39.1975 65.7793 36.3563C65.7793 33.5182 68.134 31.2158 71.0414 31.2158C73.9488 31.2158 76.3051 33.5182 76.3051 36.3563Z" stroke="black" stroke-width="2.5" stroke-miterlimit="2.6131" stroke-linecap="round" stroke-linejoin="round"/>
	<path d="M71.4011 14.0125C71.4011 15.9161 69.822 17.4623 67.8707 17.4623C65.9177 17.4623 64.334 15.9163 64.334 14.0125C64.334 12.1041 65.9177 10.5596 67.8707 10.5596C69.822 10.5596 71.4011 12.1041 71.4011 14.0125Z" stroke="black" stroke-width="2.5" stroke-miterlimit="2.6131" stroke-linecap="round" stroke-linejoin="round"/>
	<path d="M17.4935 13.2185C17.4935 15.1267 15.9098 16.6713 13.9601 16.6713C12.0071 16.6713 10.4297 15.1267 10.4297 13.2185C10.4297 11.3132 12.0071 9.76563 13.9601 9.76563C15.9098 9.76546 17.4935 11.3131 17.4935 13.2185Z" stroke="black" stroke-width="2.5" stroke-miterlimit="2.6131" stroke-linecap="round" stroke-linejoin="round"/>
	<path d="M50.5996 31.852L65.5421 16.6709" stroke="black" stroke-width="2.5" stroke-miterlimit="2.6131" stroke-linecap="round" stroke-linejoin="round"/>
	<path d="M44.4121 28.7356V12.4102" stroke="black" stroke-width="2.5" stroke-miterlimit="2.6131" stroke-linecap="round" stroke-linejoin="round"/>
	<path d="M51.9824 36.3564H62.5503H65.7787" stroke="black" stroke-width="2.5" stroke-miterlimit="2.6131" stroke-linecap="round" stroke-linejoin="round"/>
	<path d="M16.627 15.562L38.0711 31.9726" stroke="black" stroke-width="2.5" stroke-miterlimit="2.6131" stroke-linecap="round" stroke-linejoin="round"/>
</svg>
