<svg width="64" height="50" viewBox="0 0 64 50" fill="none" xmlns="http://www.w3.org/2000/svg">
	<path d="M1.18834 10.3335C0.604609 10.3335 0.130859 9.87054 0.130859 9.30014C0.130859 8.72974 0.604609 8.26681 1.18834 8.26681C31.6098 8.26681 49.9718 8.26681 55.2973 0.46101C55.5574 0.0807428 56.0396 -0.0887243 56.4838 0.0456091C56.9279 0.175809 57.2346 0.576743 57.2346 1.03348V6.20014C57.2346 6.77054 56.7608 7.23348 56.1771 7.23348C55.5934 7.23348 55.1196 6.77054 55.1196 6.20014C55.1196 5.25276 53.971 4.70292 53.1613 5.19473C44.7009 10.3335 27.2788 10.3335 1.18834 10.3335Z" fill="#F7F5F5"/>
	<path d="M27.5808 14.5892C23.8162 14.5892 19.7851 14.5603 15.4981 14.5334C10.9446 14.5024 6.16059 14.4693 1.18834 14.4693C0.604609 14.4693 0.130859 14.0064 0.130859 13.436C0.130859 12.8656 0.604609 12.4027 1.18834 12.4027C6.16694 12.4027 10.9552 12.4357 15.5108 12.4647C37.9124 12.6073 55.604 12.7333 59.6393 8.58965C59.9396 8.28378 60.3986 8.18665 60.7983 8.34372C61.2001 8.49872 61.4645 8.88105 61.4645 9.30265V13.436C61.4645 14.0064 60.9908 14.4693 60.407 14.4693C59.8233 14.4693 59.3496 14.0064 59.3496 13.436C59.3496 12.4963 58.3317 11.8716 57.4468 12.1877C51.7683 14.2163 41.5212 14.5892 27.5808 14.5892Z" fill="#F7F5F5"/>
	<path d="M1.18834 16.5342C0.604609 16.5342 0.130859 16.9971 0.130859 17.5675C0.130859 18.1379 0.604609 18.6008 1.18834 18.6008H58.4645C60.1214 18.6008 61.4645 19.944 61.4645 21.6008V44.5342C61.4645 46.191 60.1214 47.5342 58.4645 47.5342H1.18834C0.604609 47.5342 0.130859 47.9971 0.130859 48.5675C0.130859 49.1379 0.604609 49.6008 1.18834 49.6008H62.522C63.1057 49.6008 63.5795 49.1379 63.5795 48.5675V17.5675C63.5795 16.9971 63.1057 16.5342 62.522 16.5342H1.18834Z" fill="#F7F5F5"/>
	<path d="M0.130859 21.7003V48.5691C0.130859 49.1395 0.604609 49.6024 1.18834 49.6024C1.77206 49.6024 2.24581 49.1395 2.24581 48.5691V21.7003C2.24581 21.1299 1.77206 20.667 1.18834 20.667C0.604609 20.667 0.130859 21.1299 0.130859 21.7003Z" fill="#F7F5F5"/>
	<path d="M26.5575 35.1395C25.9737 35.1395 25.5 34.6766 25.5 34.1062C25.5 33.5358 25.9737 33.0728 26.5575 33.0728H32.9023C34.6514 33.0728 36.0748 31.682 36.0748 29.9728C36.0748 28.2637 34.6514 26.8728 32.9023 26.8728H28.6483C28.0776 26.8728 27.615 26.4102 27.615 25.8395C27.615 25.2691 28.0887 24.8062 28.6724 24.8062H32.9023C35.8189 24.8062 38.1897 27.127 38.1897 29.9728C38.1897 32.8207 35.8189 35.1395 32.9023 35.1395H26.5575Z" fill="#F7F5F5"/>
	<path d="M28.6825 43.4031C28.0987 43.4031 27.625 42.9402 27.625 42.3698V26.8698C27.625 26.2994 28.0987 25.8364 28.6825 25.8364C29.2662 25.8364 29.74 26.2994 29.74 26.8698V42.3698C29.74 42.9402 29.2662 43.4031 28.6825 43.4031Z" fill="#F7F5F5"/>
	<path d="M35.0231 39.2693H26.5633C25.9796 39.2693 25.5059 38.8064 25.5059 38.236C25.5059 37.6656 25.9796 37.2026 26.5633 37.2026H35.0231C35.6069 37.2026 36.0806 37.6656 36.0806 38.236C36.0806 38.8064 35.6069 39.2693 35.0231 39.2693Z" fill="#F7F5F5"/>
</svg>
