<svg width="51" height="53" viewBox="0 0 51 53" fill="none" xmlns="http://www.w3.org/2000/svg">
	<path d="M44.2522 48.7959C44.2522 50.5528 42.7726 52.0001 40.9746 52.0001" stroke="#F7F5F5" stroke-width="2" stroke-miterlimit="2.6131" stroke-linecap="round" stroke-linejoin="round"/>
	<path d="M40.9717 51.999H5.17773" stroke="#F7F5F5" stroke-width="2" stroke-miterlimit="2.6131" stroke-linecap="round" stroke-linejoin="round"/>
	<path d="M5.17957 52.0001C3.38318 52.0001 1.90039 50.5605 1.90039 48.7959" stroke="#F7F5F5" stroke-width="2" stroke-miterlimit="2.6131" stroke-linecap="round" stroke-linejoin="round"/>
	<path d="M1.90039 48.7953V13.8296L16.0928 1H40.9734" stroke="#F7F5F5" stroke-width="2" stroke-miterlimit="2.6131" stroke-linecap="round" stroke-linejoin="round"/>
	<path d="M40.9746 1C42.7806 1 44.2522 2.44893 44.2522 4.20273" stroke="#F7F5F5" stroke-width="2" stroke-miterlimit="2.6131" stroke-linecap="round" stroke-linejoin="round"/>
	<path d="M44.252 4.20312V25.4089" stroke="#F7F5F5" stroke-width="2" stroke-miterlimit="2.6131" stroke-linecap="round" stroke-linejoin="round"/>
	<path d="M16.7441 1V12.8286" stroke="#F7F5F5" stroke-width="2" stroke-miterlimit="2.6131" stroke-linecap="round" stroke-linejoin="round"/>
	<path d="M16.7451 12.8286C16.7451 13.7668 15.9539 14.5431 14.9922 14.5431" stroke="#F7F5F5" stroke-width="2" stroke-miterlimit="2.6131" stroke-linecap="round" stroke-linejoin="round"/>
	<path d="M14.9913 14.5439H1.90039" stroke="#F7F5F5" stroke-width="2" stroke-miterlimit="2.6131" stroke-linecap="round" stroke-linejoin="round"/>
	<path d="M25.1074 6.43799H37.6949" stroke="#F7F5F5" stroke-width="2" stroke-miterlimit="2.6131" stroke-linecap="round" stroke-linejoin="round"/>
	<path d="M37.6953 6.43799C38.1215 6.43799 38.4754 6.81515 38.4754 7.26927" stroke="#F7F5F5" stroke-width="2" stroke-miterlimit="2.6131" stroke-linecap="round" stroke-linejoin="round"/>
	<path d="M38.4785 7.26855V14.2946" stroke="#F7F5F5" stroke-width="2" stroke-miterlimit="2.6131" stroke-linecap="round" stroke-linejoin="round"/>
	<path d="M38.4754 14.2944C38.4754 14.7533 38.1215 15.1257 37.6953 15.1257" stroke="#F7F5F5" stroke-width="2" stroke-miterlimit="2.6131" stroke-linecap="round" stroke-linejoin="round"/>
	<path d="M37.6949 15.1265H25.1074" stroke="#F7F5F5" stroke-width="2" stroke-miterlimit="2.6131" stroke-linecap="round" stroke-linejoin="round"/>
	<path d="M25.1078 15.1257C24.6767 15.1257 24.3262 14.7533 24.3262 14.2944" stroke="#F7F5F5" stroke-width="2" stroke-miterlimit="2.6131" stroke-linecap="round" stroke-linejoin="round"/>
	<path d="M24.3262 14.2946V7.26855" stroke="#F7F5F5" stroke-width="2" stroke-miterlimit="2.6131" stroke-linecap="round" stroke-linejoin="round"/>
	<path d="M24.3262 7.26927C24.3262 6.81515 24.6767 6.43799 25.1078 6.43799" stroke="#F7F5F5" stroke-width="2" stroke-miterlimit="2.6131" stroke-linecap="round" stroke-linejoin="round"/>
	<path d="M7.08008 23.2324H38.548" stroke="#F7F5F5" stroke-width="2" stroke-miterlimit="2.6131" stroke-linecap="round" stroke-linejoin="round"/>
	<path d="M7.08008 33.8926H28.7202" stroke="#F7F5F5" stroke-width="2" stroke-miterlimit="2.6131" stroke-linecap="round" stroke-linejoin="round"/>
	<path d="M7.08008 44.5562H30.2673" stroke="#F7F5F5" stroke-width="2" stroke-miterlimit="2.6131" stroke-linecap="round" stroke-linejoin="round"/>
	<path d="M49.3235 36.8901C49.3235 41.0058 45.9093 44.3453 41.6975 44.3453C37.4823 44.3453 34.0664 41.0058 34.0664 36.8901C34.0664 32.7712 37.4823 29.4365 41.6975 29.4365C43.095 29.4365 44.4041 29.8042 45.533 30.4454" stroke="#F7F5F5" stroke-width="2" stroke-miterlimit="2.6131" stroke-linecap="round" stroke-linejoin="round"/>
	<path d="M38.3457 36.1494L42.2215 39.6209" stroke="#F7F5F5" stroke-width="2" stroke-miterlimit="2.6131" stroke-linecap="round" stroke-linejoin="round"/>
	<path d="M49.3188 32.0435L42.2188 39.6211" stroke="#F7F5F5" stroke-width="2" stroke-miterlimit="2.6131" stroke-linecap="round" stroke-linejoin="round"/>
</svg>
