<?xml version="1.0" standalone="no"?>
<!DOCTYPE svg PUBLIC "-//W3C//DTD SVG 20010904//EN"
 "http://www.w3.org/TR/2001/REC-SVG-20010904/DTD/svg10.dtd">
<svg version="1.0" xmlns="http://www.w3.org/2000/svg"
 width="48.000000pt" height="48.000000pt" viewBox="0 0 48.000000 48.000000"
 preserveAspectRatio="xMidYMid meet">
<metadata>
Created by potrace 1.16, written by Peter Selinger 2001-2019
</metadata>
	<g transform="translate(0.000000,48.000000) scale(0.100000,-0.100000)"
fill="red" stroke="none">
	<path d="M145 447 c-88 -50 -111 -147 -59 -250 28 -55 97 -149 133 -181 21
-19 21 -19 47 5 40 38 100 120 128 175 34 69 36 147 3 195 -52 77 -169 103
-252 56z m145 -97 c43 -43 11 -120 -50 -120 -38 0 -70 32 -70 70 0 38 32 70
70 70 17 0 39 -9 50 -20z"/>
	</g>
</svg>
