<svg width="23" height="23" viewBox="0 0 23 23" fill="none" xmlns="http://www.w3.org/2000/svg">
	<circle cx="11.5" cy="11.5" r="10.75" fill="#F7F5F5" stroke="#F03957" stroke-width="1.5"/>
	<path d="M9.97727 14.7273V14.6591C9.98485 13.9356 10.0606 13.3598 10.2045 12.9318C10.3485 12.5038 10.553 12.1572 10.8182 11.892C11.0833 11.6269 11.4015 11.3826 11.7727 11.1591C11.9962 11.0227 12.197 10.8617 12.375 10.6761C12.553 10.4867 12.6932 10.2689 12.7955 10.0227C12.9015 9.77652 12.9545 9.50379 12.9545 9.20455C12.9545 8.83333 12.8674 8.51136 12.6932 8.23864C12.5189 7.96591 12.286 7.75568 11.9943 7.60795C11.7027 7.46023 11.3788 7.38636 11.0227 7.38636C10.7121 7.38636 10.4129 7.45076 10.125 7.57955C9.83712 7.70833 9.59659 7.91098 9.40341 8.1875C9.21023 8.46401 9.09848 8.82576 9.06818 9.27273H7.63636C7.66667 8.62879 7.83333 8.07765 8.13636 7.61932C8.44318 7.16098 8.84659 6.81061 9.34659 6.56818C9.85038 6.32576 10.4091 6.20455 11.0227 6.20455C11.6894 6.20455 12.2689 6.33712 12.7614 6.60227C13.2576 6.86742 13.6402 7.23106 13.9091 7.69318C14.1818 8.1553 14.3182 8.68182 14.3182 9.27273C14.3182 9.68939 14.2538 10.0663 14.125 10.4034C14 10.7405 13.8182 11.0417 13.5795 11.3068C13.3447 11.572 13.0606 11.8068 12.7273 12.0114C12.3939 12.2197 12.1269 12.4394 11.9261 12.6705C11.7254 12.8977 11.5795 13.1686 11.4886 13.483C11.3977 13.7973 11.3485 14.1894 11.3409 14.6591V14.7273H9.97727ZM10.7045 18.0909C10.4242 18.0909 10.1837 17.9905 9.98295 17.7898C9.7822 17.589 9.68182 17.3485 9.68182 17.0682C9.68182 16.7879 9.7822 16.5473 9.98295 16.3466C10.1837 16.1458 10.4242 16.0455 10.7045 16.0455C10.9848 16.0455 11.2254 16.1458 11.4261 16.3466C11.6269 16.5473 11.7273 16.7879 11.7273 17.0682C11.7273 17.2538 11.6799 17.4242 11.5852 17.5795C11.4943 17.7348 11.3712 17.8598 11.2159 17.9545C11.0644 18.0455 10.8939 18.0909 10.7045 18.0909Z" fill="#F03957"/>
</svg>
